<svg xmlns="http://www.w3.org/2000/svg" version="1.1" xmlns:xlink="http://www.w3.org/1999/xlink" xmlns:svgjs="http://svgjs.com/svgjs" width="1024" height="845" preserveAspectRatio="none" viewBox="0 0 1024 845"><g mask="url(&quot;#SvgjsMask1082&quot;)" fill="none"><rect width="1024" height="845" x="0" y="0" fill="url(#SvgjsLinearGradient1083)"></rect><path d="M133.57 274.9L198.53 312.4L198.53 387.4L133.57 424.9L68.62 387.4L68.62 312.4zM68.62 612.4L133.57 649.9L133.57 724.9L68.62 762.4L3.67 724.9L3.67 649.9zM198.53 162.4L263.48 199.9L263.48 274.9L198.53 312.4L133.57 274.9L133.57 199.9zM393.39 274.9L458.34 312.4L458.34 387.4L393.39 424.9L328.44 387.4L328.44 312.4zM328.44 612.4L393.39 649.9L393.39 724.9L328.44 762.4L263.48 724.9L263.48 649.9zM458.34 162.4L523.3 199.9L523.3 274.9L458.34 312.4L393.39 274.9L393.39 199.9zM458.34 387.4L523.3 424.9L523.3 499.9L458.34 537.4L393.39 499.9L393.39 424.9zM588.25 387.4L653.2 424.9L653.2 499.9L588.25 537.4L523.3 499.9L523.3 424.9zM653.2 724.9L718.16 762.4L718.16 837.4L653.2 874.9L588.25 837.4L588.25 762.4zM718.16 -62.6L783.11 -25.1L783.11 49.9L718.16 87.4L653.2 49.9L653.2 -25.1zM783.11 724.9L848.07 762.4L848.07 837.4L783.11 874.9L718.16 837.4L718.16 762.4zM848.06 387.4L913.02 424.9L913.02 499.9L848.06 537.4L783.11 499.9L783.11 424.9zM977.97 837.4L1042.93 874.9L1042.93 949.9L977.97 987.4L913.02 949.9L913.02 874.9z" stroke="#03305d" stroke-width="2"></path><path d="M126.07 274.9 a7.5 7.5 0 1 0 15 0 a7.5 7.5 0 1 0 -15 0zM191.03 312.4 a7.5 7.5 0 1 0 15 0 a7.5 7.5 0 1 0 -15 0zM191.03 387.4 a7.5 7.5 0 1 0 15 0 a7.5 7.5 0 1 0 -15 0zM126.07 424.9 a7.5 7.5 0 1 0 15 0 a7.5 7.5 0 1 0 -15 0zM61.12 387.4 a7.5 7.5 0 1 0 15 0 a7.5 7.5 0 1 0 -15 0zM61.12 312.4 a7.5 7.5 0 1 0 15 0 a7.5 7.5 0 1 0 -15 0zM61.12 612.4 a7.5 7.5 0 1 0 15 0 a7.5 7.5 0 1 0 -15 0zM126.07 649.9 a7.5 7.5 0 1 0 15 0 a7.5 7.5 0 1 0 -15 0zM126.07 724.9 a7.5 7.5 0 1 0 15 0 a7.5 7.5 0 1 0 -15 0zM61.12 762.4 a7.5 7.5 0 1 0 15 0 a7.5 7.5 0 1 0 -15 0zM-3.83 724.9 a7.5 7.5 0 1 0 15 0 a7.5 7.5 0 1 0 -15 0zM-3.83 649.9 a7.5 7.5 0 1 0 15 0 a7.5 7.5 0 1 0 -15 0zM191.03 162.4 a7.5 7.5 0 1 0 15 0 a7.5 7.5 0 1 0 -15 0zM255.98 199.9 a7.5 7.5 0 1 0 15 0 a7.5 7.5 0 1 0 -15 0zM255.98 274.9 a7.5 7.5 0 1 0 15 0 a7.5 7.5 0 1 0 -15 0zM126.07 199.9 a7.5 7.5 0 1 0 15 0 a7.5 7.5 0 1 0 -15 0zM385.89 274.9 a7.5 7.5 0 1 0 15 0 a7.5 7.5 0 1 0 -15 0zM450.84 312.4 a7.5 7.5 0 1 0 15 0 a7.5 7.5 0 1 0 -15 0zM450.84 387.4 a7.5 7.5 0 1 0 15 0 a7.5 7.5 0 1 0 -15 0zM385.89 424.9 a7.5 7.5 0 1 0 15 0 a7.5 7.5 0 1 0 -15 0zM320.94 387.4 a7.5 7.5 0 1 0 15 0 a7.5 7.5 0 1 0 -15 0zM320.94 312.4 a7.5 7.5 0 1 0 15 0 a7.5 7.5 0 1 0 -15 0zM320.94 612.4 a7.5 7.5 0 1 0 15 0 a7.5 7.5 0 1 0 -15 0zM385.89 649.9 a7.5 7.5 0 1 0 15 0 a7.5 7.5 0 1 0 -15 0zM385.89 724.9 a7.5 7.5 0 1 0 15 0 a7.5 7.5 0 1 0 -15 0zM320.94 762.4 a7.5 7.5 0 1 0 15 0 a7.5 7.5 0 1 0 -15 0zM255.98 724.9 a7.5 7.5 0 1 0 15 0 a7.5 7.5 0 1 0 -15 0zM255.98 649.9 a7.5 7.5 0 1 0 15 0 a7.5 7.5 0 1 0 -15 0zM450.84 162.4 a7.5 7.5 0 1 0 15 0 a7.5 7.5 0 1 0 -15 0zM515.8 199.9 a7.5 7.5 0 1 0 15 0 a7.5 7.5 0 1 0 -15 0zM515.8 274.9 a7.5 7.5 0 1 0 15 0 a7.5 7.5 0 1 0 -15 0zM385.89 199.9 a7.5 7.5 0 1 0 15 0 a7.5 7.5 0 1 0 -15 0zM515.8 424.9 a7.5 7.5 0 1 0 15 0 a7.5 7.5 0 1 0 -15 0zM515.8 499.9 a7.5 7.5 0 1 0 15 0 a7.5 7.5 0 1 0 -15 0zM450.84 537.4 a7.5 7.5 0 1 0 15 0 a7.5 7.5 0 1 0 -15 0zM385.89 499.9 a7.5 7.5 0 1 0 15 0 a7.5 7.5 0 1 0 -15 0zM580.75 387.4 a7.5 7.5 0 1 0 15 0 a7.5 7.5 0 1 0 -15 0zM645.7 424.9 a7.5 7.5 0 1 0 15 0 a7.5 7.5 0 1 0 -15 0zM645.7 499.9 a7.5 7.5 0 1 0 15 0 a7.5 7.5 0 1 0 -15 0zM580.75 537.4 a7.5 7.5 0 1 0 15 0 a7.5 7.5 0 1 0 -15 0zM645.7 724.9 a7.5 7.5 0 1 0 15 0 a7.5 7.5 0 1 0 -15 0zM710.66 762.4 a7.5 7.5 0 1 0 15 0 a7.5 7.5 0 1 0 -15 0zM710.66 837.4 a7.5 7.5 0 1 0 15 0 a7.5 7.5 0 1 0 -15 0zM645.7 874.9 a7.5 7.5 0 1 0 15 0 a7.5 7.5 0 1 0 -15 0zM580.75 837.4 a7.5 7.5 0 1 0 15 0 a7.5 7.5 0 1 0 -15 0zM580.75 762.4 a7.5 7.5 0 1 0 15 0 a7.5 7.5 0 1 0 -15 0zM710.66 -62.6 a7.5 7.5 0 1 0 15 0 a7.5 7.5 0 1 0 -15 0zM775.61 -25.1 a7.5 7.5 0 1 0 15 0 a7.5 7.5 0 1 0 -15 0zM775.61 49.9 a7.5 7.5 0 1 0 15 0 a7.5 7.5 0 1 0 -15 0zM710.66 87.4 a7.5 7.5 0 1 0 15 0 a7.5 7.5 0 1 0 -15 0zM645.7 49.9 a7.5 7.5 0 1 0 15 0 a7.5 7.5 0 1 0 -15 0zM645.7 -25.1 a7.5 7.5 0 1 0 15 0 a7.5 7.5 0 1 0 -15 0zM775.61 724.9 a7.5 7.5 0 1 0 15 0 a7.5 7.5 0 1 0 -15 0zM840.57 762.4 a7.5 7.5 0 1 0 15 0 a7.5 7.5 0 1 0 -15 0zM840.57 837.4 a7.5 7.5 0 1 0 15 0 a7.5 7.5 0 1 0 -15 0zM775.61 874.9 a7.5 7.5 0 1 0 15 0 a7.5 7.5 0 1 0 -15 0zM840.56 387.4 a7.5 7.5 0 1 0 15 0 a7.5 7.5 0 1 0 -15 0zM905.52 424.9 a7.5 7.5 0 1 0 15 0 a7.5 7.5 0 1 0 -15 0zM905.52 499.9 a7.5 7.5 0 1 0 15 0 a7.5 7.5 0 1 0 -15 0zM840.56 537.4 a7.5 7.5 0 1 0 15 0 a7.5 7.5 0 1 0 -15 0zM775.61 499.9 a7.5 7.5 0 1 0 15 0 a7.5 7.5 0 1 0 -15 0zM775.61 424.9 a7.5 7.5 0 1 0 15 0 a7.5 7.5 0 1 0 -15 0zM970.47 837.4 a7.5 7.5 0 1 0 15 0 a7.5 7.5 0 1 0 -15 0zM1035.43 874.9 a7.5 7.5 0 1 0 15 0 a7.5 7.5 0 1 0 -15 0zM1035.43 949.9 a7.5 7.5 0 1 0 15 0 a7.5 7.5 0 1 0 -15 0zM970.47 987.4 a7.5 7.5 0 1 0 15 0 a7.5 7.5 0 1 0 -15 0zM905.52 949.9 a7.5 7.5 0 1 0 15 0 a7.5 7.5 0 1 0 -15 0zM905.52 874.9 a7.5 7.5 0 1 0 15 0 a7.5 7.5 0 1 0 -15 0z" fill="#03305d"></path><path d="M343.5 -59.43L469.08 13.07L469.08 158.07L343.5 230.57L217.93 158.07L217.93 13.07zM469.08 593.07L594.66 665.57L594.66 810.57L469.08 883.07L343.5 810.57L343.5 665.57zM971.39 158.07L1096.97 230.57L1096.97 375.57L971.39 448.07L845.81 375.57L845.81 230.57zM1096.97 810.57L1222.55 883.07L1222.55 1028.07L1096.97 1100.57L971.39 1028.07L971.39 883.07z" stroke="rgba(0, 255, 122, 0.93)" stroke-width="2"></path></g><defs><mask id="SvgjsMask1082"><rect width="1024" height="845" fill="#ffffff"></rect></mask><linearGradient x1="4.37%" y1="-5.3%" x2="95.63%" y2="105.3%" gradientUnits="userSpaceOnUse" id="SvgjsLinearGradient1083"><stop stop-color="#0e2a47" offset="0"></stop><stop stop-color="#00459e" offset="1"></stop></linearGradient></defs></svg>