<?xml version="1.0" encoding="UTF-8" standalone="no"?>
<svg
   xmlns:dc="http://purl.org/dc/elements/1.1/"
   xmlns:cc="http://creativecommons.org/ns#"
   xmlns:rdf="http://www.w3.org/1999/02/22-rdf-syntax-ns#"
   xmlns:svg="http://www.w3.org/2000/svg"
   xmlns="http://www.w3.org/2000/svg"
   viewBox="0 0 1000 666.66669"
   height="666.66669"
   width="1000"
   xml:space="preserve"
   id="svg2"
   version="1.1"><metadata
     id="metadata8"><rdf:RDF><cc:Work
         rdf:about=""><dc:format>image/svg+xml</dc:format><dc:type
           rdf:resource="http://purl.org/dc/dcmitype/StillImage" /></cc:Work></rdf:RDF></metadata><defs
     id="defs6"><clipPath
       id="clipPath18"
       clipPathUnits="userSpaceOnUse"><path
         id="path16"
         d="M 0,0 H 750 V 500 H 0 Z" /></clipPath></defs><g
     transform="matrix(1.3333333,0,0,-1.3333333,0,666.66667)"
     id="g10"><g
       id="g12"><g
         clip-path="url(#clipPath18)"
         id="g14"><g
           transform="translate(249.2428,499.0806)"
           id="g20"><path
             id="path22"
             style="fill:#a4e4dc;fill-opacity:1;fill-rule:nonzero;stroke:none"
             d="m 0,0 26.223,-26.223 c 18.181,-18.182 47.661,-18.181 65.841,0.003 l 15.021,15.023 c 3.171,3.171 8.311,3.171 11.481,0 l 0.149,-0.148 c 3.297,-3.297 3.302,-8.591 0.033,-11.858 -5.035,-5.034 -39.839,-39.837 -47.669,-47.666 -16.584,-16.583 -16.585,-43.471 -10e-4,-60.055 16.583,-16.583 43.471,-16.583 60.054,0 l 145.482,145.483 32.033,-4.365 -52.96,-52.96 c -23.117,-23.117 -23.117,-60.596 0,-83.713 23.116,-23.116 60.595,-23.116 83.711,0 l 80.983,80.983 c 3.518,3.517 9.222,3.517 12.739,0 3.518,-3.518 3.518,-9.221 0,-12.739 L 313.193,-178.162 c -13.066,-13.066 -13.066,-34.25 0,-47.316 13.066,-13.065 34.249,-13.065 47.316,0 l 83.075,83.076 c 3.77,3.769 9.88,3.769 13.648,0 3.77,-3.769 3.77,-9.88 0,-13.649 l -1.454,-1.454 c -27.589,-27.59 -27.589,-72.322 0,-99.912 l 61.964,-61.963 V 40.003" /></g><g
           transform="translate(189.4225,499.792)"
           id="g24"><path
             id="path26"
             style="fill:#ffd047;fill-opacity:1;fill-rule:nonzero;stroke:none"
             d="m 0,0 c 0,-35.861 -29.071,-64.932 -64.932,-64.932 -35.861,0 -64.932,29.071 -64.932,64.932 0,35.861 29.071,64.932 64.932,64.932 C -29.071,64.932 0,35.861 0,0" /></g><g
           transform="translate(698.4459,-0.1494)"
           id="g28"><path
             id="path30"
             style="fill:#ffd047;fill-opacity:1;fill-rule:nonzero;stroke:none"
             d="m 0,0 c 0,-22.501 -18.241,-40.743 -40.743,-40.743 -22.502,0 -40.743,18.242 -40.743,40.743 0,22.502 18.241,40.743 40.743,40.743 C -18.241,40.743 0,22.502 0,0" /></g><g
           transform="translate(232.1627,389.1636)"
           id="g32"><path
             id="path34"
             style="fill:#a4e4dc;fill-opacity:1;fill-rule:nonzero;stroke:none"
             d="m 0,0 c -16.553,0 -29.966,13.413 -29.966,29.958 0,16.546 13.413,29.959 29.966,29.959 16.545,0 29.958,-13.413 29.958,-29.959 C 29.958,13.413 16.545,0 0,0 m 0,67.271 c -20.575,0 -37.319,-16.737 -37.319,-37.313 0,-20.575 16.744,-37.319 37.319,-37.319 20.575,0 37.312,16.744 37.312,37.319 0,20.576 -16.737,37.313 -37.312,37.313" /></g><g
           transform="translate(710.525,205.4668)"
           id="g36"><path
             id="path38"
             style="fill:#ffd047;fill-opacity:1;fill-rule:nonzero;stroke:none"
             d="m 0,0 c 0,-9.7 -7.863,-17.563 -17.563,-17.563 -9.701,0 -17.564,7.863 -17.564,17.563 0,9.7 7.863,17.563 17.564,17.563 C -7.863,17.563 0,9.7 0,0" /></g><g
           transform="translate(224.6559,167.0381)"
           id="g40"><path
             id="path42"
             style="fill:#ffd047;fill-opacity:1;fill-rule:nonzero;stroke:none"
             d="m 0,0 c 0,-4.649 -3.769,-8.418 -8.418,-8.418 -4.649,0 -8.418,3.769 -8.418,8.418 0,4.649 3.769,8.419 8.418,8.419 C -3.769,8.419 0,4.649 0,0" /></g><g
           transform="translate(242.6793,185.0625)"
           id="g44"><path
             id="path46"
             style="fill:#ffd047;fill-opacity:1;fill-rule:nonzero;stroke:none"
             d="m 0,0 c 0,-4.649 -3.769,-8.419 -8.418,-8.419 -4.649,0 -8.418,3.77 -8.418,8.419 0,4.648 3.769,8.418 8.418,8.418 C -3.769,8.418 0,4.648 0,0" /></g><g
           transform="translate(21.2496,297.5498)"
           id="g48"><path
             id="path50"
             style="fill:#ffd047;fill-opacity:1;fill-rule:nonzero;stroke:none"
             d="m 0,0 c 0,-9.7 -7.863,-17.564 -17.563,-17.564 -9.701,0 -17.564,7.864 -17.564,17.564 0,9.7 7.863,17.563 17.564,17.563 C -7.863,17.563 0,9.7 0,0" /></g><g
           transform="translate(-14.1898,185.7842)"
           id="g52"><path
             id="path54"
             style="fill:#c0f0e6;fill-opacity:1;fill-rule:nonzero;stroke:none"
             d="m 0,0 81.97,81.97 c 18.377,18.377 48.172,18.377 66.55,0 v 0 c 18.376,-18.377 18.376,-48.172 0,-66.549 l -37.333,-37.333 c -8.069,-8.068 -8.069,-21.15 0,-29.217 8.068,-8.068 21.148,-8.068 29.216,0 l 8.117,8.115 c 16.584,16.585 43.472,16.585 60.056,0 16.584,-16.584 16.584,-43.472 0,-60.056 l -33.275,-33.275 c -3.585,-3.586 -3.585,-9.399 0,-12.985 3.586,-3.586 9.4,-3.586 12.985,0 l 81.158,81.158 c 14.344,14.343 37.599,14.343 51.942,0 14.343,-14.344 14.343,-37.599 0,-51.941 l -21.913,-21.913 c -3.138,-3.138 -3.138,-8.225 0,-11.363 3.137,-3.136 8.224,-3.136 11.362,0 l 1.817,1.818 c 38.44,38.44 100.764,38.44 139.204,0 l 37.527,-37.527 H -118.49 C -118.49,-189.098 7.305,-7.304 0,0" /></g><g
           transform="translate(585.0553,90.5146)"
           id="g56"><path
             id="path58"
             style="fill:#2c316d;fill-opacity:1;fill-rule:nonzero;stroke:none"
             d="m 0,0 v 0 c 1.759,1.759 4.611,1.759 6.37,0 l 13.565,-13.564 c 1.759,-1.759 1.759,-4.612 0,-6.372 -1.759,-1.758 -4.612,-1.758 -6.372,0 L 0,-6.371 C -1.76,-4.612 -1.76,-1.76 0,0" /></g><g
           transform="translate(604.9899,90.5146)"
           id="g60"><path
             id="path62"
             style="fill:#2c316d;fill-opacity:1;fill-rule:nonzero;stroke:none"
             d="m 0,0 v 0 c 1.76,-1.76 1.76,-4.612 0,-6.371 l -13.564,-13.565 c -1.759,-1.758 -4.612,-1.758 -6.371,0 -1.759,1.76 -1.759,4.613 0,6.372 L -6.371,0 C -4.611,1.759 -1.759,1.759 0,0" /></g><g
           transform="translate(207.0172,305.8091)"
           id="g64"><path
             id="path66"
             style="fill:#2c316d;fill-opacity:1;fill-rule:nonzero;stroke:none"
             d="m 0,0 v 0 c 1.145,1.145 3,1.145 4.144,0 l 8.823,-8.822 c 1.143,-1.145 1.143,-3 0,-4.144 -1.145,-1.144 -3,-1.144 -4.145,0 L 0,-4.144 C -1.145,-3 -1.145,-1.144 0,0" /></g><g
           transform="translate(219.984,305.8091)"
           id="g68"><path
             id="path70"
             style="fill:#2c316d;fill-opacity:1;fill-rule:nonzero;stroke:none"
             d="m 0,0 v 0 c 1.144,-1.144 1.144,-3 0,-4.144 l -8.823,-8.822 c -1.144,-1.144 -2.999,-1.144 -4.144,0 -1.144,1.144 -1.144,2.999 0,4.144 L -4.145,0 C -3,1.145 -1.145,1.145 0,0" /></g><g
           transform="translate(419.4371,387.9541)"
           id="g72"><path
             id="path74"
             style="fill:#2c316d;fill-opacity:1;fill-rule:nonzero;stroke:none"
             d="m 0,0 c 0,-10.54 -8.544,-19.083 -19.084,-19.083 -10.539,0 -19.083,8.543 -19.083,19.083 0,10.54 8.544,19.083 19.083,19.083 C -8.544,19.083 0,10.54 0,0" /></g><g
           transform="translate(65.7506,396.0742)"
           id="g76"><path
             id="path78"
             style="fill:#2c316d;fill-opacity:1;fill-rule:nonzero;stroke:none"
             d="m 0,0 c 0,-5.85 -4.742,-10.592 -10.591,-10.592 -5.849,0 -10.592,4.742 -10.592,10.592 0,5.849 4.743,10.591 10.592,10.591 C -4.742,10.591 0,5.849 0,0" /></g><g
           transform="translate(498.2789,334.3589)"
           id="g80"><path
             id="path82"
             style="fill:#2c316d;fill-opacity:1;fill-rule:nonzero;stroke:none"
             d="m 0,0 c 0,-1.743 -1.412,-3.156 -3.155,-3.156 -1.743,0 -3.157,1.413 -3.157,3.156 0,1.743 1.414,3.156 3.157,3.156 C -1.412,3.156 0,1.743 0,0" /></g><g
           transform="translate(498.2789,317.8701)"
           id="g84"><path
             id="path86"
             style="fill:#2c316d;fill-opacity:1;fill-rule:nonzero;stroke:none"
             d="m 0,0 c 0,-1.743 -1.412,-3.156 -3.155,-3.156 -1.743,0 -3.157,1.413 -3.157,3.156 0,1.743 1.414,3.156 3.157,3.156 C -1.412,3.156 0,1.743 0,0" /></g><g
           transform="translate(514.3385,334.3589)"
           id="g88"><path
             id="path90"
             style="fill:#2c316d;fill-opacity:1;fill-rule:nonzero;stroke:none"
             d="m 0,0 c 0,-1.743 -1.413,-3.156 -3.156,-3.156 -1.743,0 -3.157,1.413 -3.157,3.156 0,1.743 1.414,3.156 3.157,3.156 C -1.413,3.156 0,1.743 0,0" /></g><g
           transform="translate(514.3385,317.8701)"
           id="g92"><path
             id="path94"
             style="fill:#2c316d;fill-opacity:1;fill-rule:nonzero;stroke:none"
             d="m 0,0 c 0,-1.743 -1.413,-3.156 -3.156,-3.156 -1.743,0 -3.157,1.413 -3.157,3.156 0,1.743 1.414,3.156 3.157,3.156 C -1.413,3.156 0,1.743 0,0" /></g><g
           transform="translate(48.8346,364.1294)"
           id="g96"><path
             id="path98"
             style="fill:#2c316d;fill-opacity:1;fill-rule:nonzero;stroke:none"
             d="m 0,0 c 0,-1.743 -1.413,-3.156 -3.155,-3.156 -1.743,0 -3.157,1.413 -3.157,3.156 0,1.743 1.414,3.156 3.157,3.156 C -1.413,3.156 0,1.743 0,0" /></g><g
           transform="translate(48.8346,347.6411)"
           id="g100"><path
             id="path102"
             style="fill:#2c316d;fill-opacity:1;fill-rule:nonzero;stroke:none"
             d="m 0,0 c 0,-1.743 -1.413,-3.156 -3.155,-3.156 -1.743,0 -3.157,1.413 -3.157,3.156 0,1.743 1.414,3.156 3.157,3.156 C -1.413,3.156 0,1.743 0,0" /></g><g
           transform="translate(64.8932,364.1294)"
           id="g104"><path
             id="path106"
             style="fill:#2c316d;fill-opacity:1;fill-rule:nonzero;stroke:none"
             d="m 0,0 c 0,-1.743 -1.412,-3.156 -3.155,-3.156 -1.743,0 -3.157,1.413 -3.157,3.156 0,1.743 1.414,3.156 3.157,3.156 C -1.412,3.156 0,1.743 0,0" /></g><g
           transform="translate(64.8932,347.6411)"
           id="g108"><path
             id="path110"
             style="fill:#2c316d;fill-opacity:1;fill-rule:nonzero;stroke:none"
             d="m 0,0 c 0,-1.743 -1.412,-3.156 -3.155,-3.156 -1.743,0 -3.157,1.413 -3.157,3.156 0,1.743 1.414,3.156 3.157,3.156 C -1.412,3.156 0,1.743 0,0" /></g><g
           transform="translate(16.3287,364.1294)"
           id="g112"><path
             id="path114"
             style="fill:#2c316d;fill-opacity:1;fill-rule:nonzero;stroke:none"
             d="m 0,0 c 0,-1.743 -1.413,-3.156 -3.156,-3.156 -1.743,0 -3.156,1.413 -3.156,3.156 0,1.743 1.413,3.156 3.156,3.156 C -1.413,3.156 0,1.743 0,0" /></g><g
           transform="translate(16.3287,347.6411)"
           id="g116"><path
             id="path118"
             style="fill:#2c316d;fill-opacity:1;fill-rule:nonzero;stroke:none"
             d="m 0,0 c 0,-1.743 -1.413,-3.156 -3.156,-3.156 -1.743,0 -3.156,1.413 -3.156,3.156 0,1.743 1.413,3.156 3.156,3.156 C -1.413,3.156 0,1.743 0,0" /></g><g
           transform="translate(32.3873,364.1294)"
           id="g120"><path
             id="path122"
             style="fill:#2c316d;fill-opacity:1;fill-rule:nonzero;stroke:none"
             d="m 0,0 c 0,-1.743 -1.413,-3.156 -3.156,-3.156 -1.742,0 -3.156,1.413 -3.156,3.156 0,1.743 1.414,3.156 3.156,3.156 C -1.413,3.156 0,1.743 0,0" /></g><g
           transform="translate(32.3873,347.6411)"
           id="g124"><path
             id="path126"
             style="fill:#2c316d;fill-opacity:1;fill-rule:nonzero;stroke:none"
             d="m 0,0 c 0,-1.743 -1.413,-3.156 -3.156,-3.156 -1.742,0 -3.156,1.413 -3.156,3.156 0,1.743 1.414,3.156 3.156,3.156 C -1.413,3.156 0,1.743 0,0" /></g><g
           transform="translate(659.5182,88.9297)"
           id="g128"><path
             id="path130"
             style="fill:#2c316d;fill-opacity:1;fill-rule:nonzero;stroke:none"
             d="m 0,0 c 0,-1.743 -1.412,-3.156 -3.155,-3.156 -1.743,0 -3.157,1.413 -3.157,3.156 0,1.743 1.414,3.156 3.157,3.156 C -1.412,3.156 0,1.743 0,0" /></g><g
           transform="translate(659.5182,72.4414)"
           id="g132"><path
             id="path134"
             style="fill:#2c316d;fill-opacity:1;fill-rule:nonzero;stroke:none"
             d="m 0,0 c 0,-1.743 -1.412,-3.156 -3.155,-3.156 -1.743,0 -3.157,1.413 -3.157,3.156 0,1.743 1.414,3.155 3.157,3.155 C -1.412,3.155 0,1.743 0,0" /></g><g
           transform="translate(675.5778,88.9297)"
           id="g136"><path
             id="path138"
             style="fill:#2c316d;fill-opacity:1;fill-rule:nonzero;stroke:none"
             d="m 0,0 c 0,-1.743 -1.413,-3.156 -3.156,-3.156 -1.743,0 -3.156,1.413 -3.156,3.156 0,1.743 1.413,3.156 3.156,3.156 C -1.413,3.156 0,1.743 0,0" /></g><g
           transform="translate(675.5778,72.4414)"
           id="g140"><path
             id="path142"
             style="fill:#2c316d;fill-opacity:1;fill-rule:nonzero;stroke:none"
             d="m 0,0 c 0,-1.743 -1.413,-3.156 -3.156,-3.156 -1.743,0 -3.156,1.413 -3.156,3.156 0,1.743 1.413,3.155 3.156,3.155 C -1.413,3.155 0,1.743 0,0" /></g><g
           transform="translate(627.0123,88.9297)"
           id="g144"><path
             id="path146"
             style="fill:#2c316d;fill-opacity:1;fill-rule:nonzero;stroke:none"
             d="m 0,0 c 0,-1.743 -1.413,-3.156 -3.156,-3.156 -1.743,0 -3.156,1.413 -3.156,3.156 0,1.743 1.413,3.156 3.156,3.156 C -1.413,3.156 0,1.743 0,0" /></g><g
           transform="translate(627.0123,72.4414)"
           id="g148"><path
             id="path150"
             style="fill:#2c316d;fill-opacity:1;fill-rule:nonzero;stroke:none"
             d="m 0,0 c 0,-1.743 -1.413,-3.156 -3.156,-3.156 -1.743,0 -3.156,1.413 -3.156,3.156 0,1.743 1.413,3.155 3.156,3.155 C -1.413,3.155 0,1.743 0,0" /></g><g
           transform="translate(643.0709,88.9297)"
           id="g152"><path
             id="path154"
             style="fill:#2c316d;fill-opacity:1;fill-rule:nonzero;stroke:none"
             d="m 0,0 c 0,-1.743 -1.413,-3.156 -3.156,-3.156 -1.742,0 -3.156,1.413 -3.156,3.156 0,1.743 1.414,3.156 3.156,3.156 C -1.413,3.156 0,1.743 0,0" /></g><g
           transform="translate(643.0709,72.4414)"
           id="g156"><path
             id="path158"
             style="fill:#2c316d;fill-opacity:1;fill-rule:nonzero;stroke:none"
             d="m 0,0 c 0,-1.743 -1.413,-3.156 -3.156,-3.156 -1.742,0 -3.156,1.413 -3.156,3.156 0,1.743 1.414,3.155 3.156,3.155 C -1.413,3.155 0,1.743 0,0" /></g><g
           transform="translate(724.4703,88.9297)"
           id="g160"><path
             id="path162"
             style="fill:#2c316d;fill-opacity:1;fill-rule:nonzero;stroke:none"
             d="m 0,0 c 0,-1.743 -1.413,-3.156 -3.156,-3.156 -1.743,0 -3.156,1.413 -3.156,3.156 0,1.743 1.413,3.156 3.156,3.156 C -1.413,3.156 0,1.743 0,0" /></g><g
           transform="translate(724.4703,72.4414)"
           id="g164"><path
             id="path166"
             style="fill:#2c316d;fill-opacity:1;fill-rule:nonzero;stroke:none"
             d="m 0,0 c 0,-1.743 -1.413,-3.156 -3.156,-3.156 -1.743,0 -3.156,1.413 -3.156,3.156 0,1.743 1.413,3.155 3.156,3.155 C -1.413,3.155 0,1.743 0,0" /></g><g
           transform="translate(740.5289,88.9297)"
           id="g168"><path
             id="path170"
             style="fill:#2c316d;fill-opacity:1;fill-rule:nonzero;stroke:none"
             d="m 0,0 c 0,-1.743 -1.413,-3.156 -3.156,-3.156 -1.743,0 -3.156,1.413 -3.156,3.156 0,1.743 1.413,3.156 3.156,3.156 C -1.413,3.156 0,1.743 0,0" /></g><g
           transform="translate(740.5289,72.4414)"
           id="g172"><path
             id="path174"
             style="fill:#2c316d;fill-opacity:1;fill-rule:nonzero;stroke:none"
             d="m 0,0 c 0,-1.743 -1.413,-3.156 -3.156,-3.156 -1.743,0 -3.156,1.413 -3.156,3.156 0,1.743 1.413,3.155 3.156,3.155 C -1.413,3.155 0,1.743 0,0" /></g><g
           transform="translate(691.9635,88.9297)"
           id="g176"><path
             id="path178"
             style="fill:#2c316d;fill-opacity:1;fill-rule:nonzero;stroke:none"
             d="m 0,0 c 0,-1.743 -1.413,-3.156 -3.156,-3.156 -1.742,0 -3.156,1.413 -3.156,3.156 0,1.743 1.414,3.156 3.156,3.156 C -1.413,3.156 0,1.743 0,0" /></g><g
           transform="translate(691.9635,72.4414)"
           id="g180"><path
             id="path182"
             style="fill:#2c316d;fill-opacity:1;fill-rule:nonzero;stroke:none"
             d="m 0,0 c 0,-1.743 -1.413,-3.156 -3.156,-3.156 -1.742,0 -3.156,1.413 -3.156,3.156 0,1.743 1.414,3.155 3.156,3.155 C -1.413,3.155 0,1.743 0,0" /></g><g
           transform="translate(708.0221,88.9297)"
           id="g184"><path
             id="path186"
             style="fill:#2c316d;fill-opacity:1;fill-rule:nonzero;stroke:none"
             d="m 0,0 c 0,-1.743 -1.413,-3.156 -3.156,-3.156 -1.742,0 -3.156,1.413 -3.156,3.156 0,1.743 1.414,3.156 3.156,3.156 C -1.413,3.156 0,1.743 0,0" /></g><g
           transform="translate(708.0221,72.4414)"
           id="g188"><path
             id="path190"
             style="fill:#2c316d;fill-opacity:1;fill-rule:nonzero;stroke:none"
             d="m 0,0 c 0,-1.743 -1.413,-3.156 -3.156,-3.156 -1.742,0 -3.156,1.413 -3.156,3.156 0,1.743 1.414,3.155 3.156,3.155 C -1.413,3.155 0,1.743 0,0" /></g><g
           transform="translate(240.2789,95.5781)"
           id="g192"><path
             id="path194"
             style="fill:#2c316d;fill-opacity:1;fill-rule:nonzero;stroke:none"
             d="m 0,0 c 0,-4.305 -3.49,-7.794 -7.795,-7.794 -4.305,0 -7.794,3.489 -7.794,7.794 0,4.305 3.489,7.795 7.794,7.795 C -3.49,7.795 0,4.305 0,0" /></g><g
           transform="translate(660.2252,315.626)"
           id="g196"><path
             id="path198"
             style="fill:#2c316d;fill-opacity:1;fill-rule:nonzero;stroke:none"
             d="m 0,0 c 0,-4.305 -3.489,-7.794 -7.794,-7.794 -4.305,0 -7.794,3.489 -7.794,7.794 0,4.305 3.489,7.794 7.794,7.794 C -3.489,7.794 0,4.305 0,0" /></g><g
           transform="translate(645.901,364.375)"
           id="g200"><path
             id="path202"
             style="fill:none;stroke:#ffffff;stroke-width:3;stroke-linecap:round;stroke-linejoin:miter;stroke-miterlimit:10;stroke-dasharray:none;stroke-opacity:1"
             d="M 0,0 127.182,127.182" /></g><g
           transform="translate(418.6305,442.3745)"
           id="g204"><path
             id="path206"
             style="fill:none;stroke:#ffffff;stroke-width:3;stroke-linecap:round;stroke-linejoin:miter;stroke-miterlimit:10;stroke-dasharray:none;stroke-opacity:1"
             d="M 0,0 66.593,66.593" /></g><g
           transform="translate(-13.474,82.958)"
           id="g208"><path
             id="path210"
             style="fill:none;stroke:#ffffff;stroke-width:3;stroke-linecap:round;stroke-linejoin:miter;stroke-miterlimit:10;stroke-dasharray:none;stroke-opacity:1"
             d="M 0,0 129.258,129.258" /></g><g
           transform="translate(127.0553,-75.4531)"
           id="g212"><path
             id="path214"
             style="fill:none;stroke:#ffffff;stroke-width:3;stroke-linecap:round;stroke-linejoin:miter;stroke-miterlimit:10;stroke-dasharray:none;stroke-opacity:1"
             d="M 0,0 115.855,115.854" /></g><g
           transform="translate(-76.9506,56.0859)"
           id="g216"><path
             id="path218"
             style="fill:none;stroke:#ffffff;stroke-width:3;stroke-linecap:round;stroke-linejoin:miter;stroke-miterlimit:10;stroke-dasharray:none;stroke-opacity:1"
             d="M 0,0 115.854,115.854" /></g><g
           transform="translate(179.3443,299.7837)"
           id="g220"><path
             id="path222"
             style="fill:#c0f0e6;fill-opacity:1;fill-rule:nonzero;stroke:none"
             d="m 0,0 c 0,-8.697 -7.051,-15.748 -15.748,-15.748 -8.697,0 -15.747,7.051 -15.747,15.748 0,8.697 7.05,15.748 15.747,15.748 C -7.051,15.748 0,8.697 0,0" /></g><g
           transform="translate(464.4146,379.812)"
           id="g224"><path
             id="path226"
             style="fill:#a4e4dc;fill-opacity:1;fill-rule:nonzero;stroke:none"
             d="m 0,0 c 0,-4.598 -3.727,-8.324 -8.324,-8.324 -4.597,0 -8.324,3.726 -8.324,8.324 0,4.597 3.727,8.324 8.324,8.324 C -3.727,8.324 0,4.597 0,0" /></g><g
           transform="translate(729.0963,374.7886)"
           id="g228"><path
             id="path230"
             style="fill:#f9f3ea;fill-opacity:1;fill-rule:nonzero;stroke:none"
             d="m 0,0 c 0,-4.597 -3.727,-8.324 -8.324,-8.324 -4.597,0 -8.323,3.727 -8.323,8.324 0,4.597 3.726,8.324 8.323,8.324 C -3.727,8.324 0,4.597 0,0" /></g><g
           transform="translate(94.1871,107.9287)"
           id="g232"><path
             id="path234"
             style="fill:#ffffff;fill-opacity:1;fill-rule:nonzero;stroke:none"
             d="m 0,0 c 0,-11.297 -9.157,-20.455 -20.454,-20.455 -11.297,0 -20.454,9.158 -20.454,20.455 0,11.297 9.157,20.454 20.454,20.454 C -9.157,20.454 0,11.297 0,0" /></g><g
           transform="translate(482.4156,-56.4121)"
           id="g236"><path
             id="path238"
             style="fill:#a4e4dc;fill-opacity:1;fill-rule:nonzero;stroke:none"
             d="m 0,0 c -31.034,0 -56.183,25.147 -56.183,56.169 0,31.021 25.149,56.169 56.183,56.169 31.022,0 56.169,-25.148 56.169,-56.169 C 56.169,25.147 31.022,0 0,0 m 0,126.125 c -38.576,0 -69.97,-31.38 -69.97,-69.956 0,-38.577 31.394,-69.97 69.97,-69.97 38.577,0 69.957,31.393 69.957,69.97 0,38.576 -31.38,69.956 -69.957,69.956" /></g><g
           transform="translate(30.398,-7.3477)"
           id="g240"><path
             id="path242"
             style="fill:#a4e4dc;fill-opacity:1;fill-rule:nonzero;stroke:none"
             d="m 0,0 c 1.415,0.472 54.866,54.505 75.313,75.209 4.329,4.383 11.392,4.399 15.748,0.044 4.336,-4.337 4.336,-11.368 0,-15.704 L 74.258,42.745 c -2.176,-2.175 -2.176,-5.702 0,-7.878 2.175,-2.175 5.702,-2.175 7.878,0 l 7.003,7.003 c 4.753,4.754 12.461,4.754 17.215,0 4.752,-4.754 4.752,-12.461 0,-17.215 -2.015,-2.014 -2.015,-5.28 0,-7.295 L 126.048,-2.334 H -1.75" /></g><g
           transform="translate(630.9108,509.2036)"
           id="g244"><path
             id="path246"
             style="fill:#c0f0e6;fill-opacity:1;fill-rule:nonzero;stroke:none"
             d="m 0,0 -60.896,-60.895 c -5.651,-5.651 -5.651,-14.814 0,-20.466 5.652,-5.652 14.815,-5.652 20.466,0 l 32.545,32.545 c 1.946,1.945 5.1,1.945 7.046,0 1.945,-1.946 1.945,-5.101 0,-7.046 l -11.072,-11.072 c -3.058,-3.058 -3.058,-8.015 0,-11.072 3.057,-3.057 8.015,-3.057 11.072,0 L 29,-48.167 c 6.691,6.692 16.752,7.961 24.722,3.808 1.864,-0.973 3.615,-2.242 5.18,-3.808 l 0.819,-0.817 58.043,58.043 C 117.764,9.059 0,0.671 0,0" /></g><g
           transform="translate(299.2428,-15.5996)"
           id="g248"><path
             id="path250"
             style="fill:none;stroke:#2c316d;stroke-width:3;stroke-linecap:round;stroke-linejoin:miter;stroke-miterlimit:10;stroke-dasharray:none;stroke-opacity:1"
             d="M 0,0 144.679,144.679" /></g><g
           transform="translate(-92.0941,-94.0859)"
           id="g252"><path
             id="path254"
             style="fill:none;stroke:#2c316d;stroke-width:3;stroke-linecap:round;stroke-linejoin:miter;stroke-miterlimit:10;stroke-dasharray:none;stroke-opacity:1"
             d="M 0,0 144.679,144.679" /></g><g
           transform="translate(465.0094,540.4443)"
           id="g256"><path
             id="path258"
             style="fill:none;stroke:#2c316d;stroke-width:3;stroke-linecap:round;stroke-linejoin:miter;stroke-miterlimit:10;stroke-dasharray:none;stroke-opacity:1"
             d="M 0,0 -117.183,-117.183" /></g><g
           transform="translate(222.4977,407.4819)"
           id="g260"><path
             id="path262"
             style="fill:none;stroke:#2c316d;stroke-width:3;stroke-linecap:round;stroke-linejoin:miter;stroke-miterlimit:10;stroke-dasharray:none;stroke-opacity:1"
             d="M 0,0 -29.39,-29.39" /></g><g
           transform="translate(390.7076,43.7715)"
           id="g264"><path
             id="path266"
             style="fill:none;stroke:#2c316d;stroke-width:3;stroke-linecap:round;stroke-linejoin:miter;stroke-miterlimit:10;stroke-dasharray:none;stroke-opacity:1"
             d="M 0,0 28.212,28.211" /></g><g
           transform="translate(694.4069,456.5791)"
           id="g268"><path
             id="path270"
             style="fill:#c0f0e6;fill-opacity:1;fill-rule:nonzero;stroke:none"
             d="m 0,0 -4.594,4.458 c 0,0 49.268,55.729 50.424,56.885 1.156,1.156 35.495,-3.741 35.495,-3.741 L 26.585,0.482 C 19.392,-7.024 7.462,-7.241 0,0" /></g></g></g></g></svg>