<svg version="1.1" xmlns="http://www.w3.org/2000/svg" viewBox="0 0 628 328" width="1256" height="656">
    <!-- svg-source:excalidraw -->

    <defs>
        <style class="style-fonts">
            @font-face {
            font-family: "Virgil";
            src: url("https://excalidraw.com/Virgil.woff2");
            }
            @font-face {
            font-family: "Cascadia";
            src: url("https://excalidraw.com/Cascadia.woff2");
            }
        </style>

    </defs>
    <rect x="0" y="0" width="628" height="328" fill="#ffffff"></rect><g stroke-linecap="round" transform="translate(226 10) rotate(0 101.5 42.5)"><path d="M21.25 0 M21.25 0 C73.55 -2, 122.58 -1.12, 181.75 0 M21.25 0 C56.24 0.55, 92.04 0.08, 181.75 0 M181.75 0 C196.07 1.74, 201.89 8.78, 203 21.25 M181.75 0 C195.6 -1.61, 202.05 7.09, 203 21.25 M203 21.25 C203.55 33.14, 204.52 41.9, 203 63.75 M203 21.25 C203.23 30.9, 202.33 41.05, 203 63.75 M203 63.75 C204.39 76.89, 197.08 84, 181.75 85 M203 63.75 C203.82 78.63, 194.01 86.73, 181.75 85 M181.75 85 C133.74 81.66, 82.99 81.71, 21.25 85 M181.75 85 C126.89 85.61, 72.09 86.22, 21.25 85 M21.25 85 C7.27 85.77, 1.29 77.81, 0 63.75 M21.25 85 C8.63 84.68, 0.01 79.61, 0 63.75 M0 63.75 C-1.18 45.98, 0.65 30.71, 0 21.25 M0 63.75 C1.24 49.94, -0.32 34.62, 0 21.25 M0 21.25 C-1.33 7.82, 7.04 -1.93, 21.25 0 M0 21.25 C-2.2 6.47, 6.64 1.34, 21.25 0" stroke="#1e1e1e" stroke-width="1" fill="none"></path></g><g transform="translate(280.19000244140625 40) rotate(0 47.30999755859375 12.5)"><text x="47.30999755859375" y="0" font-family="Virgil, Segoe UI Emoji" font-size="20px" fill="#1e1e1e" text-anchor="middle" style="white-space: pre;" direction="ltr" dominant-baseline="text-before-edge">zookeeper</text></g><g stroke-linecap="round" transform="translate(10 229) rotate(0 101.5 42.5)"><path d="M21.25 0 M21.25 0 C55.27 -0.88, 88.65 -0.39, 181.75 0 M21.25 0 C73.09 1.02, 125.84 0.02, 181.75 0 M181.75 0 C196.18 -0.23, 204.69 5.6, 203 21.25 M181.75 0 C194.95 0.05, 200.9 5.21, 203 21.25 M203 21.25 C203.68 37.73, 203.79 51.74, 203 63.75 M203 21.25 C203.95 37.12, 202.26 54.53, 203 63.75 M203 63.75 C201.97 76.3, 194 86.07, 181.75 85 M203 63.75 C203.85 79.25, 195.45 84.33, 181.75 85 M181.75 85 C139.74 85.19, 99.21 85.23, 21.25 85 M181.75 85 C132.59 85.78, 85.02 84.85, 21.25 85 M21.25 85 C8.98 85.15, -1.25 79.88, 0 63.75 M21.25 85 C6.26 86.33, -1.29 76.35, 0 63.75 M0 63.75 C0.93 49.47, 0.48 32.65, 0 21.25 M0 63.75 C0.63 50.77, -1.13 38.77, 0 21.25 M0 21.25 C0.59 5.66, 7.28 -1.59, 21.25 0 M0 21.25 C1.67 5.61, 7.11 0.05, 21.25 0" stroke="#1e1e1e" stroke-width="1" fill="none"></path></g><g transform="translate(61.66999816894531 259) rotate(0 49.83000183105469 12.5)"><text x="49.83000183105469" y="0" font-family="Virgil, Segoe UI Emoji" font-size="20px" fill="#1e1e1e" text-anchor="middle" style="white-space: pre;" direction="ltr" dominant-baseline="text-before-edge">RPC消费者</text></g><g stroke-linecap="round" transform="translate(415 233) rotate(0 101.5 42.5)"><path d="M21.25 0 M21.25 0 C72.9 1.35, 126.88 1.63, 181.75 0 M21.25 0 C78.02 -1.47, 136.31 -1.24, 181.75 0 M181.75 0 C194.16 0.61, 202.56 6.87, 203 21.25 M181.75 0 C193.97 -1.3, 204.22 4.92, 203 21.25 M203 21.25 C201.95 36.01, 203.56 45.56, 203 63.75 M203 21.25 C203.5 35.21, 203.1 48.21, 203 63.75 M203 63.75 C202.56 77.64, 194.4 86.55, 181.75 85 M203 63.75 C200.76 77.18, 195.98 87.12, 181.75 85 M181.75 85 C146.92 84.18, 113.79 85.53, 21.25 85 M181.75 85 C147.23 86.66, 111.96 86.46, 21.25 85 M21.25 85 C7.15 85.16, 0.56 77.8, 0 63.75 M21.25 85 C8.34 82.79, -2.24 77.21, 0 63.75 M0 63.75 C-0.27 51.56, 0.37 37.04, 0 21.25 M0 63.75 C-0.11 48.42, -0.59 33.28, 0 21.25 M0 21.25 C-1.39 7.94, 8.38 1.95, 21.25 0 M0 21.25 C-0.74 6.57, 8.5 -0.16, 21.25 0" stroke="#1e1e1e" stroke-width="1" fill="none"></path></g><g transform="translate(466.6699981689453 263) rotate(0 49.83000183105469 12.5)"><text x="49.83000183105469" y="0" font-family="Virgil, Segoe UI Emoji" font-size="20px" fill="#1e1e1e" text-anchor="middle" style="white-space: pre;" direction="ltr" dominant-baseline="text-before-edge">RPC提供者</text></g><g mask="url(#mask-OqdV_tgmKlcEYhmcV_XB6)" stroke-linecap="round"><g transform="translate(504 228) rotate(0 -71.10071925461295 -65.37913942039013)"><path d="M-0.32 -0.72 C-24.04 -22.36, -119.39 -108.7, -142.98 -130.44 M1.71 1.51 C-22.1 -20.43, -119.96 -110.36, -143.91 -132.27" stroke="#1e1e1e" stroke-width="1" fill="none"></path></g><g transform="translate(504 228) rotate(0 -71.10071925461295 -65.37913942039013)"><path d="M-117.41 -120.74 C-122.01 -121.79, -130.01 -128.36, -142.53 -133.6 M-116.3 -121.59 C-121.77 -123.73, -126.93 -126.29, -143.19 -131.99" stroke="#1e1e1e" stroke-width="1" fill="none"></path></g><g transform="translate(504 228) rotate(0 -71.10071925461295 -65.37913942039013)"><path d="M-131.28 -105.62 C-132.41 -110.33, -137.01 -120.61, -142.53 -133.6 M-130.17 -106.47 C-132.83 -111.79, -135.09 -117.51, -143.19 -131.99" stroke="#1e1e1e" stroke-width="1" fill="none"></path></g></g><mask id="mask-OqdV_tgmKlcEYhmcV_XB6"><rect x="0" y="0" fill="#fff" width="747" height="459"></rect><rect x="392.5" y="150" fill="#000" width="80" height="25" opacity="1"></rect></mask><g transform="translate(392.5 150) rotate(0 40.399280745387045 12.620860579609868)"><text x="40" y="0" font-family="Virgil, Segoe UI Emoji" font-size="20px" fill="#1e1e1e" text-anchor="middle" style="white-space: pre;" direction="ltr" dominant-baseline="text-before-edge">服务注册</text></g><g mask="url(#mask-HAn_PYXgkAeBMQjwm1Eu5)" stroke-linecap="round"><g transform="translate(308 100) rotate(0 -95.65289073984138 62.49649474827572)"><path d="M-0.01 0.76 C-31.84 21.43, -158.67 103.38, -190.57 123.92 M-1.48 0.11 C-33.46 20.9, -159.47 104.11, -191.29 124.89" stroke="#1e1e1e" stroke-width="1" fill="none"></path></g><g transform="translate(308 100) rotate(0 -95.65289073984138 62.49649474827572)"><path d="M-172.11 101.55 C-181.12 108.1, -186.94 115.42, -191.71 123.06 M-173.3 100.88 C-180.4 109.69, -186.72 117.52, -191.39 124.09" stroke="#1e1e1e" stroke-width="1" fill="none"></path></g><g transform="translate(308 100) rotate(0 -95.65289073984138 62.49649474827572)"><path d="M-160.84 118.7 C-173.57 119.58, -183.12 121.22, -191.71 123.06 M-162.03 118.03 C-173.35 120.69, -183.73 122.34, -191.39 124.09" stroke="#1e1e1e" stroke-width="1" fill="none"></path></g></g><mask id="mask-HAn_PYXgkAeBMQjwm1Eu5"><rect x="0" y="0" fill="#fff" width="599" height="325"></rect><rect x="172.5" y="150" fill="#000" width="80" height="25" opacity="1"></rect></mask><g transform="translate(172.5 150) rotate(0 39.84710926015862 12.496494748275722)"><text x="40" y="0" font-family="Virgil, Segoe UI Emoji" font-size="20px" fill="#1e1e1e" text-anchor="middle" style="white-space: pre;" direction="ltr" dominant-baseline="text-before-edge">服务订阅</text></g><g mask="url(#mask-X-WzVvHF23m7AGfEqrI9G)" stroke-linecap="round"><g transform="translate(216 275) rotate(0 96.73648486335765 0.5752456935774717)"><path d="M-0.55 -0.02 C31.42 0.45, 159.52 1.99, 191.89 2.23 M1.36 -1.07 C33.68 -0.94, 162.03 -0.36, 194.03 0.22" stroke="#1e1e1e" stroke-width="1" fill="none"></path></g><g transform="translate(216 275) rotate(0 96.73648486335765 0.5752456935774717)"><path d="M165.7 8.35 C174.77 8.49, 182.03 5.78, 196 0.15 M164.77 9.38 C176.08 7.17, 187.2 3.51, 194.09 0.39" stroke="#1e1e1e" stroke-width="1" fill="none"></path></g><g transform="translate(216 275) rotate(0 96.73648486335765 0.5752456935774717)"><path d="M165.91 -12.17 C174.81 -5.78, 182.01 -2.25, 196 0.15 M164.98 -11.14 C176.29 -5.62, 187.33 -1.56, 194.09 0.39" stroke="#1e1e1e" stroke-width="1" fill="none"></path></g></g><mask id="mask-X-WzVvHF23m7AGfEqrI9G"><rect x="0" y="0" fill="#fff" width="509" height="377"></rect><rect x="272.5" y="263.5" fill="#000" width="80" height="25" opacity="1"></rect></mask><g transform="translate(272.5 263.5) rotate(0 40.236484863357646 12.075245693577472)"><text x="40" y="0" font-family="Virgil, Segoe UI Emoji" font-size="20px" fill="#1e1e1e" text-anchor="middle" style="white-space: pre;" direction="ltr" dominant-baseline="text-before-edge">远程调用</text></g></svg>